<svg width="12" height="12" viewBox="0 0 12 12" fill="none" xmlns="http://www.w3.org/2000/svg">
<rect width="12" height="12" rx="6" fill="#E1E1E2"/>
<path fill-rule="evenodd" clip-rule="evenodd" d="M3.87864 8.12132C3.76149 8.00416 3.74566 7.83004 3.84329 7.73241L7.73238 3.84332C7.83001 3.74569 8.00413 3.76152 8.12129 3.87868C8.23844 3.99584 8.25427 4.16996 8.15664 4.26759L4.26755 8.15668C4.16992 8.25431 3.9958 8.23848 3.87864 8.12132Z" fill="#52545B"/>
<path fill-rule="evenodd" clip-rule="evenodd" d="M3.87864 3.87868C3.9958 3.76152 4.16992 3.74569 4.26755 3.84332L8.15664 7.73241C8.25427 7.83004 8.23844 8.00416 8.12129 8.12132C8.00413 8.23848 7.83001 8.25431 7.73238 8.15668L3.84329 4.26759C3.74566 4.16996 3.76149 3.99584 3.87864 3.87868Z" fill="#52545B"/>
</svg>
