<svg width="20" height="20" viewBox="0 0 20 20" fill="none" xmlns="http://www.w3.org/2000/svg">
<rect width="20" height="20" rx="8" fill="#E1E1E2"/>
<path fill-rule="evenodd" clip-rule="evenodd" d="M6.46424 13.5355C6.26898 13.3403 6.2426 13.0501 6.40532 12.8874L12.8871 6.40554C13.0498 6.24282 13.3401 6.2692 13.5353 6.46447C13.7306 6.65973 13.757 6.94993 13.5942 7.11265L7.11243 13.5945C6.94971 13.7572 6.65951 13.7308 6.46424 13.5355Z" fill="#52545B"/>
<path fill-rule="evenodd" clip-rule="evenodd" d="M6.46424 6.46447C6.65951 6.2692 6.94971 6.24282 7.11243 6.40554L13.5942 12.8874C13.757 13.0501 13.7306 13.3403 13.5353 13.5355C13.3401 13.7308 13.0498 13.7572 12.8871 13.5945L6.40532 7.11265C6.2426 6.94993 6.26898 6.65973 6.46424 6.46447Z" fill="#52545B"/>
</svg>
