<svg width="45" height="45" viewBox="0 0 45 45" fill="none" xmlns="http://www.w3.org/2000/svg">
<g clip-path="url(#clip0_8067_24694)">
<path d="M29.5314 13.3592C29.5314 13.7764 29.4076 14.1842 29.1759 14.5311C28.9441 14.878 28.6146 15.1484 28.2292 15.308C27.8438 15.4677 27.4196 15.5095 27.0105 15.4281C26.6013 15.3467 26.2254 15.1458 25.9304 14.8508C25.6354 14.5558 25.4345 14.1799 25.3531 13.7707C25.2717 13.3616 25.3135 12.9374 25.4732 12.552C25.6328 12.1666 25.9032 11.8371 26.2501 11.6053C26.597 11.3736 27.0048 11.2499 27.422 11.2499C27.9814 11.2499 28.518 11.4721 28.9135 11.8677C29.3091 12.2633 29.5314 12.7998 29.5314 13.3592ZM38.0954 25.2491C34.6905 31.3838 28.3501 34.6991 19.2446 35.1104L15.3775 44.1473C15.2688 44.4011 15.0878 44.6172 14.8571 44.7688C14.6264 44.9204 14.3562 45.0008 14.0802 44.9999H13.9905C13.7008 44.9817 13.4237 44.8743 13.1974 44.6924C12.9711 44.5105 12.8067 44.263 12.7267 43.9838L10.1251 34.8731L1.01964 32.2663C0.739744 32.1876 0.491095 32.0242 0.307913 31.7985C0.124731 31.5727 0.016022 31.2957 -0.00325278 31.0056C-0.0225276 30.7155 0.0485796 30.4266 0.200282 30.1786C0.351985 29.9306 0.576825 29.7357 0.843858 29.6208L9.88077 25.7536C10.2939 16.6516 13.6091 10.3129 19.7403 6.9063C24.0909 4.49107 29.011 4.12193 32.3755 4.23794C35.6521 4.35044 38.7036 4.98853 39.2064 5.29263C39.4116 5.41362 39.5828 5.5848 39.7038 5.79009C40.0009 6.29107 40.6407 9.34263 40.7585 12.6192C40.878 15.9766 40.5107 20.8985 38.0954 25.2491ZM28.3958 30.3467C26.771 29.7273 25.356 28.6581 24.3163 27.2642C23.2767 25.8703 22.6552 24.2093 22.5247 22.4752C20.7911 22.345 19.1304 21.7238 17.7368 20.6844C16.3431 19.6451 15.2742 18.2304 14.655 16.6059C13.4304 19.3938 12.7683 22.7682 12.6687 26.7292C12.6624 26.9989 12.5787 27.2611 12.4276 27.4846C12.2764 27.7081 12.0642 27.8833 11.8161 27.9895L5.59522 30.6508L11.6509 32.384C11.8806 32.4499 12.0898 32.5732 12.2587 32.7424C12.4275 32.9115 12.5505 33.121 12.6159 33.3508L14.3456 39.4047L17.0105 33.1821C17.1169 32.9344 17.2923 32.7225 17.5157 32.5716C17.7392 32.4208 18.0013 32.3374 18.2708 32.3313C22.2282 32.2364 25.6032 31.5749 28.3958 30.3467ZM37.3396 7.65864C34.8523 7.1313 26.072 5.72505 19.7087 10.2514C18.6555 11.0029 17.7093 11.8941 16.8962 12.9004C16.8296 13.8187 16.9641 14.7405 17.2905 15.6014C17.6168 16.4624 18.1271 17.2417 18.7857 17.8851C19.4443 18.5285 20.2354 19.0204 21.1037 19.3265C21.972 19.6326 22.8967 19.7456 23.8132 19.6575C24.0197 19.6376 24.228 19.6636 24.4232 19.7337C24.6184 19.8038 24.7957 19.9162 24.9424 20.0629C25.089 20.2095 25.2014 20.3868 25.2715 20.5821C25.3416 20.7773 25.3676 20.9856 25.3478 21.192C25.2598 22.1089 25.3731 23.0338 25.6797 23.9023C25.9862 24.7708 26.4786 25.562 27.1226 26.2205C27.7665 26.879 28.5464 27.389 29.4079 27.7149C30.2693 28.0408 31.1915 28.1747 32.1101 28.1073C33.1127 27.294 33.9998 26.3477 34.7468 25.2948C39.2732 18.9368 37.8669 10.1495 37.3396 7.65864Z" fill="#FFCB65"/>
</g>
<defs>
<clipPath id="clip0_8067_24694">
<rect width="45" height="45" fill="white"/>
</clipPath>
</defs>
</svg>
