<svg width="16" height="18" viewBox="0 0 16 18" fill="none" xmlns="http://www.w3.org/2000/svg">
<path d="M13.8333 15.4626H2.16667V6.1126H13.8333M11.3333 0.162598V1.8626H4.66667V0.162598H3V1.8626H2.16667C1.24167 1.8626 0.5 2.6191 0.5 3.5626V15.4626C0.5 15.9135 0.675595 16.3459 0.988155 16.6647C1.30072 16.9835 1.72464 17.1626 2.16667 17.1626H13.8333C14.2754 17.1626 14.6993 16.9835 15.0118 16.6647C15.3244 16.3459 15.5 15.9135 15.5 15.4626V3.5626C15.5 3.11173 15.3244 2.67933 15.0118 2.36052C14.6993 2.0417 14.2754 1.8626 13.8333 1.8626H13V0.162598M12.1667 9.5126H8V13.7626H12.1667V9.5126Z" fill="black"/>
</svg>
