<svg width="13" height="12" viewBox="0 0 13 12" fill="none" xmlns="http://www.w3.org/2000/svg">
<g clip-path="url(#clip0_8081_10968)">
<path d="M8.54127 3.56258C8.54127 3.67383 8.50828 3.78258 8.44647 3.87508C8.38467 3.96759 8.29681 4.03968 8.19403 4.08226C8.09125 4.12483 7.97815 4.13597 7.86903 4.11427C7.75992 4.09256 7.65969 4.03899 7.58103 3.96032C7.50236 3.88166 7.44878 3.78143 7.42708 3.67231C7.40538 3.5632 7.41652 3.4501 7.45909 3.34732C7.50166 3.24453 7.57376 3.15668 7.66626 3.09487C7.75877 3.03307 7.86752 3.00008 7.97877 3.00008C8.12796 3.00008 8.27103 3.05934 8.37652 3.16483C8.48201 3.27032 8.54127 3.41339 8.54127 3.56258ZM10.825 6.7332C9.91705 8.36914 8.22627 9.2532 5.79815 9.36289L4.7669 11.7727C4.73791 11.8404 4.68966 11.898 4.62814 11.9385C4.56662 11.9789 4.49457 12.0003 4.42096 12.0001H4.39705C4.31978 11.9952 4.2459 11.9666 4.18555 11.9181C4.12521 11.8696 4.08136 11.8036 4.06002 11.7291L3.36627 9.29961L0.938147 8.60445C0.863509 8.58349 0.797202 8.5399 0.748354 8.4797C0.699505 8.4195 0.670516 8.34564 0.665376 8.26828C0.660236 8.19093 0.679198 8.11388 0.719652 8.04774C0.760106 7.98161 0.820064 7.92964 0.891272 7.89898L3.30112 6.86773C3.41127 4.44054 4.29533 2.75023 5.93034 1.84179C7.09049 1.19773 8.40252 1.09929 9.29971 1.13023C10.1735 1.16023 10.9872 1.33039 11.1213 1.41148C11.176 1.44375 11.2217 1.48939 11.2539 1.54414C11.3331 1.67773 11.5038 2.49148 11.5352 3.36523C11.5671 4.26054 11.4691 5.57304 10.825 6.7332ZM8.23846 8.09258C7.80517 7.92739 7.42784 7.64228 7.1506 7.27057C6.87335 6.89886 6.70764 6.45592 6.67283 5.99351C6.21053 5.95877 5.76767 5.79313 5.39604 5.51596C5.02441 5.2388 4.73937 4.86156 4.57424 4.42836C4.24768 5.17179 4.07112 6.07164 4.04455 7.12789C4.04289 7.19982 4.02058 7.26975 3.98027 7.32934C3.93996 7.38893 3.88335 7.43567 3.81721 7.46398L2.1583 8.17367L3.77315 8.63586C3.83442 8.65342 3.8902 8.68631 3.93523 8.73142C3.98025 8.77653 4.01304 8.83237 4.03049 8.89367L4.49174 10.508L5.20237 8.84867C5.23075 8.78262 5.27751 8.72611 5.3371 8.68589C5.39669 8.64566 5.46658 8.62341 5.53846 8.62179C6.59377 8.59648 7.49377 8.42008 8.23846 8.09258ZM10.6235 2.04242C9.96018 1.90179 7.61877 1.52679 5.9219 2.73383C5.64104 2.93422 5.38873 3.17186 5.1719 3.44023C5.15413 3.68511 5.19001 3.93091 5.27704 4.16049C5.36407 4.39007 5.50014 4.5979 5.67577 4.76947C5.8514 4.94103 6.06235 5.07221 6.2939 5.15384C6.52546 5.23548 6.77203 5.2656 7.01643 5.24211C7.07149 5.2368 7.12703 5.24375 7.17909 5.26244C7.23115 5.28113 7.27843 5.3111 7.31754 5.35021C7.35665 5.38933 7.38662 5.4366 7.40532 5.48866C7.42401 5.54072 7.43095 5.59627 7.42565 5.65133C7.4022 5.89581 7.43241 6.14247 7.51415 6.37407C7.5959 6.60567 7.72721 6.81664 7.89893 6.99224C8.07065 7.16784 8.27863 7.30384 8.50835 7.39074C8.73806 7.47765 8.98398 7.51336 9.22893 7.49539C9.4963 7.2785 9.73285 7.02618 9.93205 6.74539C11.1391 5.04992 10.7641 2.70664 10.6235 2.04242Z" fill="#8A8C90"/>
</g>
<defs>
<clipPath id="clip0_8081_10968">
<rect width="12" height="12" fill="white" transform="translate(0.666504)"/>
</clipPath>
</defs>
</svg>
