<svg width="20" height="21" viewBox="0 0 20 21" fill="none" xmlns="http://www.w3.org/2000/svg">
<path d="M13.5938 4.23054C12.6287 3.11603 11.5426 2.11245 10.3555 1.23835C10.2504 1.16473 10.1252 1.12524 9.99687 1.12524C9.86857 1.12524 9.74337 1.16473 9.63828 1.23835C8.45332 2.11282 7.36931 3.11639 6.40625 4.23054C4.25859 6.69694 3.125 9.29694 3.125 11.7501C3.125 13.5734 3.84933 15.3221 5.13864 16.6114C6.42795 17.9007 8.17664 18.6251 10 18.6251C11.8234 18.6251 13.572 17.9007 14.8614 16.6114C16.1507 15.3221 16.875 13.5734 16.875 11.7501C16.875 9.29694 15.7414 6.69694 13.5938 4.23054ZM10 17.3751C8.50866 17.3734 7.07889 16.7803 6.02435 15.7257C4.96982 14.6712 4.37665 13.2414 4.375 11.7501C4.375 7.27898 8.70859 3.54694 10 2.53132C11.2914 3.54694 15.625 7.27741 15.625 11.7501C15.6233 13.2414 15.0302 14.6712 13.9756 15.7257C12.9211 16.7803 11.4913 17.3734 10 17.3751ZM14.3664 12.4798C14.2043 13.385 13.7688 14.2188 13.1185 14.8691C12.4681 15.5193 11.6342 15.9546 10.7289 16.1165C10.6945 16.122 10.6598 16.1249 10.625 16.1251C10.4682 16.125 10.3172 16.0661 10.2018 15.9599C10.0865 15.8537 10.0153 15.708 10.0023 15.5518C9.98933 15.3956 10.0355 15.2402 10.1318 15.1164C10.228 14.9926 10.3673 14.9096 10.5219 14.8837C11.8164 14.6657 12.9148 13.5673 13.1344 12.2704C13.1621 12.1069 13.2537 11.9611 13.3889 11.8652C13.5242 11.7692 13.692 11.7309 13.8555 11.7587C14.019 11.7864 14.1647 11.878 14.2607 12.0132C14.3566 12.1485 14.395 12.3163 14.3672 12.4798H14.3664Z" fill="#2A2B2A"/>
</svg>
