<svg width="20" height="20" viewBox="0 0 20 20" fill="none" xmlns="http://www.w3.org/2000/svg">
<path d="M6.5625 13.4375V13.4365M6.5625 13.4375H6.56152M6.5625 13.4375V13.4365M6.5625 13.4375H6.56152M6.5625 13.4365L6.60645 13.3936M6.5625 13.4365H6.56152M6.5625 13.4365L6.60645 13.3936M6.5625 13.4365H6.56152M6.60645 13.3936L6.62402 13.4258L6.62305 13.4375C6.62305 13.4455 6.62317 13.4534 6.62012 13.4609C6.61545 13.4722 6.60774 13.4824 6.59766 13.4893C6.58738 13.4961 6.57486 13.5 6.5625 13.5C6.54592 13.5 6.53027 13.4932 6.51855 13.4814M6.60645 13.3936C6.59771 13.3848 6.58634 13.3784 6.57422 13.376C6.57035 13.3752 6.56641 13.377 6.5625 13.377L6.53906 13.3799M6.51855 13.4814L6.56152 13.4375M6.51855 13.4814C6.50967 13.4726 6.50431 13.4614 6.50195 13.4492M6.51855 13.4814L6.56152 13.4375M6.56152 13.4375L6.50195 13.4492M6.56152 13.4375V13.4355M6.56152 13.4375L6.50195 13.4492M6.56152 13.4375V13.4365M6.50195 13.4492L6.5 13.4375C6.5 13.4251 6.50387 13.4126 6.51074 13.4023L6.5293 13.3867C6.53253 13.3846 6.53546 13.3814 6.53906 13.3799M6.53906 13.3799L6.56152 13.4355M6.53906 13.3799L6.56152 13.4355M6.56152 13.4355V13.4365M10 13.4375V13.4365M10 13.4375H9.99902M10 13.4375V13.4365M10 13.4375H9.99902M10 13.4365L10.0439 13.3936M10 13.4365L9.94434 13.4141M10 13.4365H9.99902M10 13.4365H9.99902M10 13.4365L10.0439 13.3936M10 13.4365H9.99902M10.0439 13.3936L10.0615 13.4258L10.0605 13.4375C10.0605 13.4455 10.0607 13.4534 10.0576 13.4609C10.0529 13.4722 10.0452 13.4824 10.0352 13.4893C10.0249 13.4961 10.0124 13.5 10 13.5C9.98342 13.5 9.96777 13.4932 9.95605 13.4814M10.0439 13.3936C10.0352 13.3848 10.0238 13.3784 10.0117 13.376C10.0078 13.3752 10.0039 13.377 10 13.377L9.97656 13.3799M9.95605 13.4814L9.99902 13.4375M9.95605 13.4814C9.94717 13.4726 9.94181 13.4614 9.93945 13.4492M9.95605 13.4814L9.99902 13.4375M9.99902 13.4375L9.93945 13.4492M9.99902 13.4375V13.4365M9.99902 13.4375L9.93945 13.4492M9.99902 13.4375V13.4365M9.93945 13.4492C9.9387 13.4453 9.9375 13.4415 9.9375 13.4375C9.9375 13.4291 9.94112 13.4217 9.94434 13.4141M9.94434 13.4141C9.94587 13.4104 9.94602 13.4057 9.94824 13.4023L9.9668 13.3867C9.97003 13.3846 9.97296 13.3814 9.97656 13.3799M9.94434 13.4141L9.99902 13.4355M9.99902 13.4365V13.4355M13.4375 13.4375V13.4365M13.4375 13.4375H13.4365M13.4375 13.4375V13.4365M13.4375 13.4375H13.4365M13.4375 13.4365L13.4814 13.3936M13.4375 13.4365H13.4365M13.4375 13.4365L13.4814 13.3936M13.4375 13.4365H13.4365M13.4814 13.3936L13.499 13.4258L13.498 13.4375C13.498 13.4455 13.4982 13.4534 13.4951 13.4609C13.4904 13.4722 13.4827 13.4824 13.4727 13.4893C13.4624 13.4961 13.4499 13.5 13.4375 13.5C13.4209 13.5 13.4053 13.4932 13.3936 13.4814M13.4814 13.3936C13.4727 13.3848 13.4613 13.3784 13.4492 13.376C13.4453 13.3752 13.4414 13.377 13.4375 13.377L13.4141 13.3799M13.3936 13.4814L13.4365 13.4375M13.3936 13.4814C13.3847 13.4726 13.3793 13.4614 13.377 13.4492M13.3936 13.4814L13.4365 13.4375M13.4365 13.4375L13.377 13.4492M13.4365 13.4375V13.4355M13.4365 13.4375L13.377 13.4492M13.4365 13.4375V13.4365M13.377 13.4492C13.3762 13.4453 13.375 13.4415 13.375 13.4375C13.375 13.4251 13.3789 13.4126 13.3857 13.4023L13.4043 13.3867C13.4075 13.3846 13.4105 13.3814 13.4141 13.3799M13.4141 13.3799L13.4365 13.4355M13.4141 13.3799L13.4365 13.4355M13.4365 13.4355V13.4365M9.99902 13.4355L9.97656 13.3799M9.99902 13.4355L9.97656 13.3799M10 10.3125V10.3115M10 10.3125H9.99902M10 10.3125V10.3115M10 10.3125H9.99902M10 10.3115L10.0439 10.2686M10 10.3115H9.99902M10 10.3115L10.0439 10.2686M10 10.3115H9.99902M10.0439 10.2686L10.0615 10.3008L10.0605 10.3125C10.0605 10.3205 10.0607 10.3284 10.0576 10.3359C10.0529 10.3472 10.0452 10.3574 10.0352 10.3643C10.0317 10.3666 10.0263 10.3656 10.0225 10.3672L10 10.375C9.98342 10.375 9.96778 10.3682 9.95605 10.3564M10.0439 10.2686C10.0352 10.2598 10.0238 10.2534 10.0117 10.251C10.0078 10.2502 10.0039 10.252 10 10.252L9.97656 10.2549M9.95605 10.3564L9.99902 10.3125M9.95605 10.3564C9.94717 10.3476 9.94181 10.3364 9.93945 10.3242M9.95605 10.3564L9.99902 10.3125M9.99902 10.3125L9.93945 10.3242M9.99902 10.3125V10.3115M9.99902 10.3125L9.93945 10.3242M9.99902 10.3125V10.3115M9.93945 10.3242C9.9387 10.3203 9.9375 10.3165 9.9375 10.3125C9.9375 10.3041 9.94112 10.2967 9.94434 10.2891M9.94434 10.2891L9.99902 10.3115M9.94434 10.2891C9.94587 10.2854 9.94602 10.2807 9.94824 10.2773L9.9668 10.2617C9.97003 10.2596 9.97296 10.2564 9.97656 10.2549M9.94434 10.2891L9.99902 10.3105M9.99902 10.3115V10.3105M13.3936 10.3564C13.3847 10.3476 13.3793 10.3364 13.377 10.3242M13.3936 10.3564L13.4365 10.3125M13.3936 10.3564C13.4053 10.3682 13.4209 10.375 13.4375 10.375L13.46 10.3672C13.4638 10.3656 13.4692 10.3666 13.4727 10.3643C13.4827 10.3574 13.4904 10.3472 13.4951 10.3359C13.4982 10.3284 13.498 10.3205 13.498 10.3125L13.499 10.3008L13.4814 10.2686M13.3936 10.3564L13.4365 10.3125M13.377 10.3242L13.4365 10.3125M13.377 10.3242L13.4365 10.3125M13.377 10.3242C13.3762 10.3203 13.375 10.3165 13.375 10.3125C13.375 10.3041 13.3786 10.2967 13.3818 10.2891M13.4365 10.3125V10.3115M13.4365 10.3125H13.4375M13.4365 10.3125H13.4375M13.4365 10.3125V10.3115M13.4375 10.3115L13.4814 10.2686M13.4375 10.3115L13.3818 10.2891M13.4375 10.3115H13.4365M13.4375 10.3115V10.3125M13.4375 10.3115V10.3125M13.4375 10.3115H13.4365M13.4375 10.3115L13.4814 10.2686M13.4375 10.3115H13.4365M13.4814 10.2686C13.4727 10.2598 13.4613 10.2534 13.4492 10.251C13.4453 10.2502 13.4414 10.252 13.4375 10.252L13.4141 10.2549M13.3818 10.2891C13.3834 10.2854 13.3835 10.2807 13.3857 10.2773L13.4043 10.2617C13.4075 10.2596 13.4105 10.2564 13.4141 10.2549M13.3818 10.2891L13.4365 10.3105M13.4365 10.3115V10.3105M9.99902 10.3105L9.97656 10.2549M9.99902 10.3105L9.97656 10.2549M13.4365 10.3105L13.4141 10.2549M13.4365 10.3105L13.4141 10.2549" fill="#272932" stroke="black" stroke-width="2"/>
</svg>
