<svg width="16" height="17" viewBox="0 0 16 17" fill="none" xmlns="http://www.w3.org/2000/svg">
<path d="M13.8333 15.3H2.16667V5.95H13.8333M11.3333 0V1.7H4.66667V0H3V1.7H2.16667C1.24167 1.7 0.5 2.4565 0.5 3.4V15.3C0.5 15.7509 0.675595 16.1833 0.988155 16.5021C1.30072 16.8209 1.72464 17 2.16667 17H13.8333C14.2754 17 14.6993 16.8209 15.0118 16.5021C15.3244 16.1833 15.5 15.7509 15.5 15.3V3.4C15.5 2.94913 15.3244 2.51673 15.0118 2.19792C14.6993 1.87911 14.2754 1.7 13.8333 1.7H13V0M12.1667 9.35H8V13.6H12.1667V9.35Z" fill="black"/>
</svg>
