<svg width="24" height="25" viewBox="0 0 24 25" fill="none" xmlns="http://www.w3.org/2000/svg">
<path d="M21 10.3125H3M16 2.3125V6.3125M8 2.3125V6.3125M7.8 22.3125H16.2C17.8802 22.3125 18.7202 22.3125 19.362 21.9855C19.9265 21.6979 20.3854 21.239 20.673 20.6745C21 20.0327 21 19.1927 21 17.5125V9.1125C21 7.43234 21 6.59226 20.673 5.95053C20.3854 5.38604 19.9265 4.9271 19.362 4.63948C18.7202 4.3125 17.8802 4.3125 16.2 4.3125H7.8C6.11984 4.3125 5.27976 4.3125 4.63803 4.63948C4.07354 4.9271 3.6146 5.38604 3.32698 5.95053C3 6.59226 3 7.43234 3 9.1125V17.5125C3 19.1927 3 20.0327 3.32698 20.6745C3.6146 21.239 4.07354 21.6979 4.63803 21.9855C5.27976 22.3125 6.11984 22.3125 7.8 22.3125Z" stroke="#232323" stroke-width="2" stroke-linecap="round" stroke-linejoin="round"/>
</svg>
