<svg width="24" height="25" viewBox="0 0 24 25" fill="none" xmlns="http://www.w3.org/2000/svg">
<path d="M10.7429 5.40482C11.1494 5.34473 11.5686 5.3125 12.0004 5.3125C17.1054 5.3125 20.4553 9.81734 21.5807 11.5993C21.7169 11.815 21.785 11.9228 21.8231 12.0892C21.8518 12.2141 21.8517 12.4112 21.8231 12.5361C21.7849 12.7024 21.7164 12.811 21.5792 13.0281C21.2793 13.5026 20.8222 14.1696 20.2165 14.893M6.72432 7.02754C4.56225 8.4942 3.09445 10.5319 2.42111 11.5978C2.28428 11.8144 2.21587 11.9227 2.17774 12.089C2.1491 12.2139 2.14909 12.4109 2.17771 12.5359C2.21583 12.7022 2.28393 12.81 2.42013 13.0257C3.54554 14.8077 6.89541 19.3125 12.0004 19.3125C14.0588 19.3125 15.8319 18.5801 17.2888 17.5891M3.00042 3.3125L21.0004 21.3125M9.8791 10.1912C9.3362 10.7341 9.00042 11.4841 9.00042 12.3125C9.00042 13.9694 10.3436 15.3125 12.0004 15.3125C12.8288 15.3125 13.5788 14.9767 14.1217 14.4338" stroke="#9A9A9A" stroke-width="2" stroke-linecap="round" stroke-linejoin="round"/>
</svg>
