<svg width="13" height="12" viewBox="0 0 13 12" fill="none" xmlns="http://www.w3.org/2000/svg">
<path d="M11.9163 3.75C11.9163 3.25272 11.7188 2.77581 11.3672 2.42417C11.0155 2.07254 10.5386 1.875 10.0413 1.875H2.91635C2.48579 1.87526 2.06844 2.0237 1.73441 2.29537C1.40038 2.56704 1.17002 2.94539 1.08204 3.36687C0.994065 3.78834 1.05382 4.22726 1.25127 4.60987C1.44873 4.99248 1.77185 5.29548 2.16635 5.46797V9.375C2.16635 9.57391 2.24536 9.76468 2.38602 9.90533C2.52667 10.046 2.71743 10.125 2.91635 10.125H10.0413C10.2403 10.125 10.431 10.046 10.5717 9.90533C10.7123 9.76468 10.7913 9.57391 10.7913 9.375V5.46797C11.1254 5.32177 11.4097 5.08147 11.6095 4.77639C11.8093 4.47131 11.9159 4.11467 11.9163 3.75ZM2.91635 5.625C3.0158 5.625 3.11118 5.58549 3.18151 5.51516C3.25184 5.44484 3.29135 5.34946 3.29135 5.25C3.29135 5.15054 3.25184 5.05516 3.18151 4.98484C3.11118 4.91451 3.0158 4.875 2.91635 4.875C2.61798 4.875 2.33183 4.75647 2.12085 4.5455C1.90987 4.33452 1.79135 4.04837 1.79135 3.75C1.79135 3.45163 1.90987 3.16548 2.12085 2.9545C2.33183 2.74353 2.61798 2.625 2.91635 2.625H7.41635C7.71471 2.625 8.00086 2.74353 8.21184 2.9545C8.42282 3.16548 8.54135 3.45163 8.54135 3.75C8.54135 4.04837 8.42282 4.33452 8.21184 4.5455C8.00086 4.75647 7.71471 4.875 7.41635 4.875C7.31689 4.875 7.22151 4.91451 7.15118 4.98484C7.08085 5.05516 7.04135 5.15054 7.04135 5.25C7.04135 5.34946 7.08085 5.44484 7.15118 5.51516C7.22151 5.58549 7.31689 5.625 7.41635 5.625V9.375H2.91635V5.625ZM10.0413 4.875C9.94189 4.875 9.84651 4.91451 9.77618 4.98484C9.70585 5.05516 9.66635 5.15054 9.66635 5.25C9.66635 5.34946 9.70585 5.44484 9.77618 5.51516C9.84651 5.58549 9.94189 5.625 10.0413 5.625V9.375H8.16635V5.46797C8.42553 5.3548 8.65576 5.18446 8.8398 4.96971C9.02383 4.75496 9.1569 4.50137 9.22904 4.2279C9.30118 3.95444 9.31053 3.6682 9.25637 3.39062C9.20222 3.11303 9.08598 2.8513 8.91635 2.625H10.0413C10.3397 2.625 10.6259 2.74353 10.8368 2.9545C11.0478 3.16548 11.1663 3.45163 11.1663 3.75C11.1663 4.04837 11.0478 4.33452 10.8368 4.5455C10.6259 4.75647 10.3397 4.875 10.0413 4.875Z" fill="#8A8C90"/>
</svg>
