<svg width="13" height="12" viewBox="0 0 13 12" fill="none" xmlns="http://www.w3.org/2000/svg">
<g clip-path="url(#clip0_8081_10900)">
<path d="M8.20826 3.56258C8.20826 3.67383 8.17527 3.78258 8.11347 3.87508C8.05166 3.96759 7.96381 4.03968 7.86102 4.08226C7.75824 4.12483 7.64514 4.13597 7.53603 4.11427C7.42691 4.09256 7.32668 4.03899 7.24802 3.96032C7.16935 3.88166 7.11578 3.78143 7.09407 3.67231C7.07237 3.5632 7.08351 3.4501 7.12608 3.34732C7.16866 3.24453 7.24075 3.15668 7.33326 3.09487C7.42576 3.03307 7.53451 3.00008 7.64576 3.00008C7.79495 3.00008 7.93802 3.05934 8.04351 3.16483C8.149 3.27032 8.20826 3.41339 8.20826 3.56258ZM10.492 6.7332C9.58405 8.36914 7.89326 9.2532 5.46514 9.36289L4.43389 11.7727C4.40491 11.8404 4.35665 11.898 4.29513 11.9385C4.23362 11.9789 4.16156 12.0003 4.08795 12.0001H4.06405C3.98677 11.9952 3.91289 11.9666 3.85254 11.9181C3.7922 11.8696 3.74835 11.8036 3.72701 11.7291L3.03326 9.29961L0.605139 8.60445C0.530501 8.58349 0.464194 8.5399 0.415346 8.4797C0.366497 8.4195 0.337508 8.34564 0.332368 8.26828C0.327228 8.19093 0.34619 8.11388 0.386644 8.04774C0.427098 7.98161 0.487056 7.92964 0.558264 7.89898L2.96811 6.86773C3.07826 4.44054 3.96233 2.75023 5.59733 1.84179C6.75748 1.19773 8.06951 1.09929 8.9667 1.13023C9.84045 1.16023 10.6542 1.33039 10.7883 1.41148C10.843 1.44375 10.8887 1.48939 10.9209 1.54414C11.0001 1.67773 11.1708 2.49148 11.2022 3.36523C11.234 4.26054 11.1361 5.57304 10.492 6.7332ZM7.90545 8.09258C7.47216 7.92739 7.09484 7.64228 6.81759 7.27057C6.54035 6.89886 6.37464 6.45592 6.33983 5.99351C5.87752 5.95877 5.43467 5.79313 5.06304 5.51596C4.69141 5.2388 4.40636 4.86156 4.24123 4.42836C3.91467 5.17179 3.73811 6.07164 3.71155 7.12789C3.70989 7.19982 3.68757 7.26975 3.64726 7.32934C3.60695 7.38893 3.55034 7.43567 3.4842 7.46398L1.8253 8.17367L3.44014 8.63586C3.50141 8.65342 3.55719 8.68631 3.60222 8.73142C3.64725 8.77653 3.68003 8.83237 3.69748 8.89367L4.15873 10.508L4.86936 8.84867C4.89774 8.78262 4.94451 8.72611 5.00409 8.68589C5.06368 8.64566 5.13358 8.62341 5.20545 8.62179C6.26076 8.59648 7.16076 8.42008 7.90545 8.09258ZM10.2905 2.04242C9.62717 1.90179 7.28576 1.52679 5.58889 2.73383C5.30803 2.93422 5.05572 3.17186 4.83889 3.44023C4.82112 3.68511 4.857 3.93091 4.94403 4.16049C5.03106 4.39007 5.16713 4.5979 5.34276 4.76947C5.51839 4.94103 5.72934 5.07221 5.9609 5.15384C6.19245 5.23548 6.43903 5.2656 6.68342 5.24211C6.73848 5.2368 6.79403 5.24375 6.84608 5.26244C6.89814 5.28113 6.94542 5.3111 6.98453 5.35021C7.02364 5.38933 7.05362 5.4366 7.07231 5.48866C7.091 5.54072 7.09794 5.59627 7.09264 5.65133C7.06919 5.89581 7.0994 6.14247 7.18115 6.37407C7.26289 6.60567 7.39421 6.81664 7.56592 6.99224C7.73764 7.16784 7.94562 7.30384 8.17534 7.39074C8.40506 7.47765 8.65097 7.51336 8.89592 7.49539C9.16329 7.2785 9.39984 7.02618 9.59905 6.74539C10.8061 5.04992 10.4311 2.70664 10.2905 2.04242Z" fill="#8A8C90"/>
</g>
<defs>
<clipPath id="clip0_8081_10900">
<rect width="12" height="12" fill="white" transform="translate(0.333496)"/>
</clipPath>
</defs>
</svg>
