<svg width="13" height="12" viewBox="0 0 13 12" fill="none" xmlns="http://www.w3.org/2000/svg">
<g clip-path="url(#clip0_8081_10962)">
<path d="M11.5833 3.75C11.5833 3.25272 11.3858 2.77581 11.0342 2.42417C10.6825 2.07254 10.2056 1.875 9.70834 1.875H2.58334C2.15278 1.87526 1.73543 2.0237 1.4014 2.29537C1.06737 2.56704 0.837016 2.94539 0.749037 3.36687C0.661058 3.78834 0.720814 4.22726 0.918267 4.60987C1.11572 4.99248 1.43884 5.29548 1.83334 5.46797V9.375C1.83334 9.57391 1.91236 9.76468 2.05301 9.90533C2.19366 10.046 2.38443 10.125 2.58334 10.125H9.70834C9.90725 10.125 10.098 10.046 10.2387 9.90533C10.3793 9.76468 10.4583 9.57391 10.4583 9.375V5.46797C10.7924 5.32177 11.0767 5.08147 11.2765 4.77639C11.4763 4.47131 11.5829 4.11467 11.5833 3.75ZM2.58334 5.625C2.68279 5.625 2.77818 5.58549 2.8485 5.51516C2.91883 5.44484 2.95834 5.34946 2.95834 5.25C2.95834 5.15054 2.91883 5.05516 2.8485 4.98484C2.77818 4.91451 2.68279 4.875 2.58334 4.875C2.28497 4.875 1.99882 4.75647 1.78784 4.5455C1.57686 4.33452 1.45834 4.04837 1.45834 3.75C1.45834 3.45163 1.57686 3.16548 1.78784 2.9545C1.99882 2.74353 2.28497 2.625 2.58334 2.625H7.08334C7.38171 2.625 7.66785 2.74353 7.87883 2.9545C8.08981 3.16548 8.20834 3.45163 8.20834 3.75C8.20834 4.04837 8.08981 4.33452 7.87883 4.5455C7.66785 4.75647 7.38171 4.875 7.08334 4.875C6.98388 4.875 6.8885 4.91451 6.81817 4.98484C6.74785 5.05516 6.70834 5.15054 6.70834 5.25C6.70834 5.34946 6.74785 5.44484 6.81817 5.51516C6.8885 5.58549 6.98388 5.625 7.08334 5.625V9.375H2.58334V5.625ZM9.70834 4.875C9.60888 4.875 9.5135 4.91451 9.44317 4.98484C9.37285 5.05516 9.33334 5.15054 9.33334 5.25C9.33334 5.34946 9.37285 5.44484 9.44317 5.51516C9.5135 5.58549 9.60888 5.625 9.70834 5.625V9.375H7.83334V5.46797C8.09253 5.3548 8.32275 5.18446 8.50679 4.96971C8.69082 4.75496 8.82389 4.50137 8.89603 4.2279C8.96817 3.95444 8.97752 3.6682 8.92337 3.39062C8.86922 3.11303 8.75297 2.8513 8.58334 2.625H9.70834C10.0067 2.625 10.2929 2.74353 10.5038 2.9545C10.7148 3.16548 10.8333 3.45163 10.8333 3.75C10.8333 4.04837 10.7148 4.33452 10.5038 4.5455C10.2929 4.75647 10.0067 4.875 9.70834 4.875Z" fill="#8A8C90"/>
</g>
<defs>
<clipPath id="clip0_8081_10962">
<rect width="12" height="12" fill="white" transform="translate(0.333496)"/>
</clipPath>
</defs>
</svg>
