<svg width="20" height="21" viewBox="0 0 20 21" fill="none" xmlns="http://www.w3.org/2000/svg">
<path d="M5.62501 7.37489V3.62489C5.62501 3.45913 5.69085 3.30016 5.80806 3.18294C5.92527 3.06573 6.08425 2.99989 6.25001 2.99989C6.41577 2.99989 6.57474 3.06573 6.69195 3.18294C6.80916 3.30016 6.87501 3.45913 6.87501 3.62489V7.37489C6.87501 7.54065 6.80916 7.69962 6.69195 7.81683C6.57474 7.93404 6.41577 7.99989 6.25001 7.99989C6.08425 7.99989 5.92527 7.93404 5.80806 7.81683C5.69085 7.69962 5.62501 7.54065 5.62501 7.37489ZM16.875 3.62489V17.9999C16.875 18.1656 16.8092 18.3246 16.6919 18.4418C16.5747 18.559 16.4158 18.6249 16.25 18.6249C16.0842 18.6249 15.9253 18.559 15.8081 18.4418C15.6909 18.3246 15.625 18.1656 15.625 17.9999V14.2499H11.875C11.7092 14.2499 11.5503 14.184 11.4331 14.0668C11.3159 13.9496 11.25 13.7906 11.25 13.6249C11.279 12.1278 11.4681 10.638 11.8141 9.18114C12.5781 6.01786 14.0266 3.89754 16.0039 3.05067C16.099 3.00996 16.2026 2.99346 16.3056 3.00266C16.4086 3.01185 16.5077 3.04645 16.594 3.10335C16.6803 3.16026 16.7512 3.23769 16.8002 3.32871C16.8493 3.41973 16.875 3.52149 16.875 3.62489ZM15.625 4.71082C13.1117 6.63036 12.6195 11.3061 12.5234 12.9999H15.625V4.71082ZM9.36641 3.52254C9.35417 3.44048 9.32571 3.36167 9.28269 3.29072C9.23968 3.21976 9.18296 3.15809 9.11586 3.10928C9.04875 3.06048 8.9726 3.02553 8.89184 3.00647C8.81109 2.9874 8.72735 2.98461 8.6455 2.99825C8.56366 3.01189 8.48535 3.04169 8.41514 3.08592C8.34493 3.13014 8.28423 3.1879 8.23658 3.25583C8.18893 3.32376 8.15529 3.40049 8.13761 3.48156C8.11992 3.56263 8.11856 3.64641 8.1336 3.72801L8.75001 7.42411C8.75001 8.08715 8.48661 8.72303 8.01777 9.19187C7.54893 9.66071 6.91305 9.92411 6.25001 9.92411C5.58696 9.92411 4.95108 9.66071 4.48224 9.19187C4.0134 8.72303 3.75001 8.08715 3.75001 7.42411L4.36563 3.72801C4.38067 3.64641 4.37931 3.56263 4.36163 3.48156C4.34394 3.40049 4.3103 3.32376 4.26265 3.25583C4.215 3.1879 4.1543 3.13014 4.08409 3.08592C4.01389 3.04169 3.93558 3.01189 3.85373 2.99825C3.77188 2.98461 3.68814 2.9874 3.60739 3.00647C3.52663 3.02553 3.45048 3.06048 3.38338 3.10928C3.31627 3.15809 3.25955 3.21976 3.21654 3.29072C3.17352 3.36167 3.14506 3.44048 3.13282 3.52254L2.50782 7.27254C2.50247 7.30639 2.49986 7.34062 2.50001 7.37489C2.50125 8.26068 2.81557 9.11751 3.3874 9.79399C3.95924 10.4705 4.75179 10.9231 5.62501 11.0718V17.9999C5.62501 18.1656 5.69085 18.3246 5.80806 18.4418C5.92527 18.559 6.08425 18.6249 6.25001 18.6249C6.41577 18.6249 6.57474 18.559 6.69195 18.4418C6.80916 18.3246 6.87501 18.1656 6.87501 17.9999V11.0718C7.74822 10.9231 8.54077 10.4705 9.11261 9.79399C9.68445 9.11751 9.99876 8.26068 10 7.37489C9.9999 7.3406 9.99702 7.30637 9.99141 7.27254L9.36641 3.52254Z" fill="#272932"/>
</svg>
