<svg width="21" height="20" viewBox="0 0 21 20" fill="none" xmlns="http://www.w3.org/2000/svg">
<path d="M5.875 11.25H2.75C2.58424 11.25 2.42527 11.1842 2.30806 11.0669C2.19085 10.9497 2.125 10.7908 2.125 10.625C2.125 10.4592 2.19085 10.3003 2.30806 10.1831C2.42527 10.0658 2.58424 10 2.75 10H5.54063L6.60469 8.40312C6.66174 8.31739 6.73909 8.24709 6.82987 8.19846C6.92064 8.14984 7.02202 8.12439 7.125 8.12439C7.22798 8.12439 7.32936 8.14984 7.42013 8.19846C7.51091 8.24709 7.58826 8.31739 7.64531 8.40312L9.625 11.3719L10.3547 10.2781C10.4118 10.1925 10.4892 10.1223 10.58 10.0738C10.6707 10.0253 10.7721 9.99993 10.875 10H12.75C12.9158 10 13.0747 10.0658 13.1919 10.1831C13.3092 10.3003 13.375 10.4592 13.375 10.625C13.375 10.7908 13.3092 10.9497 13.1919 11.0669C13.0747 11.1842 12.9158 11.25 12.75 11.25H11.2094L10.1453 12.8469C10.0883 12.9326 10.0109 13.0029 9.92013 13.0515C9.82936 13.1002 9.72798 13.1256 9.625 13.1256C9.52202 13.1256 9.42064 13.1002 9.32987 13.0515C9.23909 13.0029 9.16174 12.9326 9.10469 12.8469L7.125 9.87656L6.39531 10.9703C6.33837 11.0562 6.26107 11.1267 6.17028 11.1755C6.0795 11.2243 5.97806 11.2499 5.875 11.25ZM14.1562 3.125C12.543 3.125 11.1305 3.81875 10.25 4.99141C9.36953 3.81875 7.95703 3.125 6.34375 3.125C5.05955 3.12645 3.82837 3.63723 2.9203 4.5453C2.01223 5.45337 1.50145 6.68455 1.5 7.96875C1.5 8.02734 1.5 8.08594 1.5 8.14453C1.50518 8.31029 1.576 8.4672 1.69687 8.58075C1.81774 8.6943 1.97877 8.75518 2.14453 8.75C2.31029 8.74482 2.46721 8.674 2.58075 8.55313C2.6943 8.43226 2.75518 8.27123 2.75 8.10547C2.75 8.06016 2.75 8.01406 2.75 7.96875C2.75124 7.01601 3.13026 6.10264 3.80395 5.42895C4.47765 4.75526 5.39101 4.37624 6.34375 4.375C7.86328 4.375 9.13906 5.18437 9.67187 6.48437C9.71896 6.59901 9.79907 6.69705 9.90201 6.76605C10.0049 6.83505 10.1261 6.8719 10.25 6.8719C10.3739 6.8719 10.4951 6.83505 10.598 6.76605C10.7009 6.69705 10.781 6.59901 10.8281 6.48437C11.3609 5.18203 12.6367 4.375 14.1562 4.375C15.109 4.37624 16.0224 4.75526 16.696 5.42895C17.3697 6.10264 17.7488 7.01601 17.75 7.96875C17.75 12.157 11.675 15.9492 10.25 16.7812C9.40391 16.2883 6.91953 14.75 5.04062 12.7023C4.98512 12.6418 4.91824 12.5928 4.84379 12.5581C4.76935 12.5234 4.68881 12.5038 4.60676 12.5002C4.52471 12.4966 4.44276 12.5093 4.3656 12.5374C4.28843 12.5655 4.21756 12.6086 4.15703 12.6641C4.0965 12.7196 4.04749 12.7864 4.01281 12.8609C3.97813 12.9353 3.95845 13.0159 3.95489 13.0979C3.95134 13.18 3.96398 13.2619 3.99209 13.3391C4.02021 13.4163 4.06325 13.4871 4.11875 13.5477C6.55391 16.2039 9.81641 17.9758 9.95391 18.05C10.0449 18.099 10.1467 18.1246 10.25 18.1246C10.3533 18.1246 10.4551 18.099 10.5461 18.05C10.8914 17.8641 19 13.4375 19 7.96875C18.9986 6.68455 18.4878 5.45337 17.5797 4.5453C16.6716 3.63723 15.4404 3.12645 14.1562 3.125Z" fill="#757D83"/>
</svg>
