<svg width="21" height="20" viewBox="0 0 21 20" fill="none" xmlns="http://www.w3.org/2000/svg">
<path d="M4.5 3H17C17.1989 3 17.3896 3.07907 17.5303 3.21973C17.6709 3.36038 17.75 3.55109 17.75 3.75V16.25C17.75 16.4489 17.6709 16.6396 17.5303 16.7803C17.3896 16.9209 17.1989 17 17 17H4.5C4.30109 17 4.11038 16.9209 3.96973 16.7803C3.82907 16.6396 3.75 16.4489 3.75 16.25V3.75C3.75 3.55109 3.82907 3.36038 3.96973 3.21973C4.0751 3.11435 4.20855 3.04352 4.35254 3.01465L4.5 3ZM4 16.75H6.875V3.25H4V16.75ZM7.125 16.75H17.5V3.25H7.125V16.75ZM9.5 11.125H14.5C14.5332 11.125 14.5654 11.1377 14.5889 11.1611C14.6123 11.1846 14.625 11.2168 14.625 11.25C14.625 11.2832 14.6123 11.3154 14.5889 11.3389C14.5654 11.3623 14.5332 11.375 14.5 11.375H9.5C9.46685 11.375 9.43457 11.3623 9.41113 11.3389C9.38769 11.3154 9.375 11.2832 9.375 11.25C9.375 11.2168 9.38769 11.1846 9.41113 11.1611C9.43457 11.1377 9.46685 11.125 9.5 11.125ZM9.5 8.625H14.5C14.5332 8.625 14.5654 8.63769 14.5889 8.66113C14.6123 8.68457 14.625 8.71685 14.625 8.75C14.625 8.78315 14.6123 8.81543 14.5889 8.83887C14.5654 8.86231 14.5332 8.875 14.5 8.875H9.5C9.46685 8.875 9.43458 8.86231 9.41113 8.83887C9.38769 8.81542 9.375 8.78315 9.375 8.75C9.375 8.71685 9.38769 8.68458 9.41113 8.66113C9.43458 8.63769 9.46685 8.625 9.5 8.625Z" fill="#272932" stroke="black"/>
</svg>
