<svg width="12" height="12" viewBox="0 0 12 12" fill="none" xmlns="http://www.w3.org/2000/svg">
<path fill-rule="evenodd" clip-rule="evenodd" d="M9.26059 0.140589C9.44804 -0.0468629 9.75196 -0.0468629 9.93941 0.140589L11.8594 2.06059C12.0469 2.24804 12.0469 2.55196 11.8594 2.73941L6.09941 8.49941C6.00939 8.58943 5.8873 8.64 5.76 8.64H3.84C3.5749 8.64 3.36 8.4251 3.36 8.16V6.24C3.36 6.1127 3.41057 5.99061 3.50059 5.90059L9.26059 0.140589ZM4.32 6.43882V7.68H5.56118L10.8412 2.4L9.6 1.15882L4.32 6.43882Z" fill="#272932"/>
<path fill-rule="evenodd" clip-rule="evenodd" d="M7.82059 1.58059C8.00804 1.39314 8.31196 1.39314 8.49941 1.58059L10.4194 3.50059C10.6069 3.68804 10.6069 3.99196 10.4194 4.17941C10.232 4.36686 9.92804 4.36686 9.74059 4.17941L7.82059 2.25941C7.63314 2.07196 7.63314 1.76804 7.82059 1.58059Z" fill="#272932"/>
<path fill-rule="evenodd" clip-rule="evenodd" d="M0.281178 0.761178C0.461212 0.581143 0.705392 0.48 0.96 0.48H6.24C6.5051 0.48 6.72 0.694903 6.72 0.96C6.72 1.2251 6.5051 1.44 6.24 1.44L0.96 1.44L0.96 11.04H10.56V5.76C10.56 5.4949 10.7749 5.28 11.04 5.28C11.3051 5.28 11.52 5.4949 11.52 5.76V11.04C11.52 11.2946 11.4189 11.5388 11.2388 11.7188C11.0588 11.8989 10.8146 12 10.56 12H0.96C0.705393 12 0.461213 11.8989 0.281178 11.7188C0.101143 11.5388 0 11.2946 0 11.04V1.44C0 1.18539 0.101143 0.941212 0.281178 0.761178Z" fill="#272932"/>
</svg>
